<svg width="63" height="35" viewBox="0 0 63 35" fill="none" xmlns="http://www.w3.org/2000/svg">
<path d="M1.64 6H6.04V17.8L11.64 6H16.04L10.8 16.28L16.12 34H11.52L7.8 21.52L6.04 25.08V34H1.64V6ZM24.5634 34.4C22.4301 34.4 20.8034 33.8 19.6834 32.6C18.5634 31.3733 18.0034 29.6267 18.0034 27.36V6H22.4034V27.68C22.4034 28.64 22.5901 29.3333 22.9634 29.76C23.3634 30.1867 23.9234 30.4 24.6434 30.4C25.3634 30.4 25.9101 30.1867 26.2834 29.76C26.6834 29.3333 26.8834 28.64 26.8834 27.68V6H31.1234V27.36C31.1234 29.6267 30.5634 31.3733 29.4434 32.6C28.3234 33.8 26.6968 34.4 24.5634 34.4ZM34.2572 6H40.8972C43.1639 6 44.8172 6.53333 45.8572 7.6C46.8972 8.64 47.4172 10.2533 47.4172 12.44V13.56C47.4172 15 47.1772 16.1733 46.6972 17.08C46.2439 17.9867 45.5372 18.64 44.5772 19.04V19.12C46.7639 19.8667 47.8572 21.8133 47.8572 24.96V27.36C47.8572 29.52 47.2839 31.1733 46.1372 32.32C45.0172 33.44 43.3639 34 41.1772 34H34.2572V6ZM40.3772 17.4C41.2572 17.4 41.9105 17.1733 42.3372 16.72C42.7905 16.2667 43.0172 15.5067 43.0172 14.44V12.88C43.0172 11.8667 42.8305 11.1333 42.4572 10.68C42.1105 10.2267 41.5505 10 40.7772 10H38.6572V17.4H40.3772ZM41.1772 30C41.9505 30 42.5239 29.8 42.8972 29.4C43.2705 28.9733 43.4572 28.2533 43.4572 27.24V24.8C43.4572 23.52 43.2305 22.64 42.7772 22.16C42.3505 21.6533 41.6305 21.4 40.6172 21.4H38.6572V30H41.1772Z" fill="black"/>
</svg>
